<svg width="100" height="100" viewBox="0 0 100 100" fill="none" xmlns="http://www.w3.org/2000/svg">
<path d="M0 32.1429C0 18.751 0 12.055 3.41041 7.36098C4.51183 5.845 5.845 4.51183 7.36098 3.41041C12.055 0 18.751 0 32.1429 0H67.8571C81.249 0 87.945 0 92.639 3.41041C94.155 4.51183 95.4882 5.845 96.5896 7.36098C100 12.055 100 18.751 100 32.1429V67.8571C100 81.249 100 87.945 96.5896 92.639C95.4882 94.155 94.155 95.4882 92.639 96.5896C87.945 100 81.249 100 67.8571 100H32.1429C18.751 100 12.055 100 7.36098 96.5896C5.845 95.4882 4.51183 94.155 3.41041 92.639C0 87.945 0 81.249 0 67.8571V32.1429Z" fill="#261C15"/>
<path d="M44.1429 32.0714H56V67.7857H44.1429V64.2143C42 67.2619 38.6905 68.7857 34.2143 68.7857C30.3572 68.7857 27.1905 67.4762 24.7143 64.8571C22.2857 62.1905 21.0714 58.381 21.0714 53.4286V32.0714H32.9286V51.9286C32.9286 53.7857 33.4048 55.1905 34.3572 56.1429C35.3572 57.0952 36.6667 57.5714 38.2857 57.5714C40.1429 57.5714 41.5714 57.0238 42.5714 55.9286C43.6191 54.7857 44.1429 53.1667 44.1429 51.0714V32.0714Z" fill="white"/>
<path d="M65.9358 31.0714C69.793 31.0714 72.9358 32.4048 75.3644 35.0714C77.8406 37.6905 79.0787 41.4762 79.0787 46.4286V67.7857H67.2216V47.9286C67.2216 46.0714 66.7216 44.6667 65.7216 43.7143C64.7692 42.7619 63.4835 42.2857 61.8644 42.2857C60.0073 42.2857 58.5549 42.8571 57.5073 44C56.5073 45.0952 56.0073 46.6905 56.0073 48.7857V67.7857H44.1501V32.0714H56.0073V35.6429C58.1501 32.5952 61.4596 31.0714 65.9358 31.0714Z" fill="#F4845F"/>
</svg>
